<svg xmlns="http://www.w3.org/2000/svg" viewBox="0 0 640 400" width="640" height="400" role="img" aria-label="aerospace engineering illustration">
<title>aerospace engineering illustration</title>
<defs>
<linearGradient id="g1355378764b" x1="0" y1="0" x2="1" y2="1"><stop offset="0" stop-color="#132340"/><stop offset="1" stop-color="#0B1220"/></linearGradient>
<radialGradient id="g1355378764r" cx="0.5" cy="0.48" r="0.55"><stop offset="0" stop-color="#60A5FA" stop-opacity="0.34"/><stop offset="1" stop-color="#60A5FA" stop-opacity="0"/></radialGradient>
</defs>
<rect width="640" height="400" fill="url(#g1355378764b)"/>
<g stroke="#FFFFFF" stroke-opacity="0.045" stroke-width="1"><path d="M0 0V400" /><path d="M40 0V400" /><path d="M80 0V400" /><path d="M120 0V400" /><path d="M160 0V400" /><path d="M200 0V400" /><path d="M240 0V400" /><path d="M280 0V400" /><path d="M320 0V400" /><path d="M360 0V400" /><path d="M400 0V400" /><path d="M440 0V400" /><path d="M480 0V400" /><path d="M520 0V400" /><path d="M560 0V400" /><path d="M600 0V400" /><path d="M640 0V400" /><path d="M0 0H640" /><path d="M0 40H640" /><path d="M0 80H640" /><path d="M0 120H640" /><path d="M0 160H640" /><path d="M0 200H640" /><path d="M0 240H640" /><path d="M0 280H640" /><path d="M0 320H640" /><path d="M0 360H640" /><path d="M0 400H640" /></g>
<rect width="640" height="400" fill="url(#g1355378764r)"/>
<g><g transform="translate(53.3 0.0) scale(0.667)"><path d="M120 510Q260 470 320 360T560 260" fill="none" stroke="#60A5FA99" stroke-width="4" stroke-linecap="round" stroke-linejoin="round"/><path d="M120 510Q260 470 320 360T560 260" stroke-dasharray="3 14" fill="none" stroke="#0B1220" stroke-width="0" stroke-linecap="round" stroke-linejoin="round"/><path d="M400 275L300 170" fill="none" stroke="#E2E8F0" stroke-width="8" stroke-linecap="round" stroke-linejoin="round"/><ellipse cx="300" cy="170" rx="64" ry="14" fill="#60A5FA" fill-opacity="0.35" fill="none" stroke="#60A5FA" stroke-width="4" stroke-linecap="round" stroke-linejoin="round"/><circle cx="300" cy="170" r="8" fill="#E2E8F0"/><path d="M400 275L500 170" fill="none" stroke="#E2E8F0" stroke-width="8" stroke-linecap="round" stroke-linejoin="round"/><ellipse cx="500" cy="170" rx="64" ry="14" fill="#60A5FA" fill-opacity="0.35" fill="none" stroke="#60A5FA" stroke-width="4" stroke-linecap="round" stroke-linejoin="round"/><circle cx="500" cy="170" r="8" fill="#E2E8F0"/><path d="M400 275L300 380" fill="none" stroke="#E2E8F0" stroke-width="8" stroke-linecap="round" stroke-linejoin="round"/><ellipse cx="300" cy="380" rx="64" ry="14" fill="#60A5FA" fill-opacity="0.35" fill="none" stroke="#60A5FA" stroke-width="4" stroke-linecap="round" stroke-linejoin="round"/><circle cx="300" cy="380" r="8" fill="#E2E8F0"/><path d="M400 275L500 380" fill="none" stroke="#E2E8F0" stroke-width="8" stroke-linecap="round" stroke-linejoin="round"/><ellipse cx="500" cy="380" rx="64" ry="14" fill="#60A5FA" fill-opacity="0.35" fill="none" stroke="#60A5FA" stroke-width="4" stroke-linecap="round" stroke-linejoin="round"/><circle cx="500" cy="380" r="8" fill="#E2E8F0"/><rect x="355" y="240" width="90" height="70" rx="18" fill="#0B1220" stroke="#60A5FA" stroke-width="6"/><circle cx="400" cy="275" r="10" fill="#60A5FA"/></g></g>
</svg>
