<svg xmlns="http://www.w3.org/2000/svg" viewBox="0 0 640 400" width="640" height="400" role="img" aria-label="it engineering illustration">
<title>it engineering illustration</title>
<defs>
<linearGradient id="g1946050410b" x1="0" y1="0" x2="1" y2="1"><stop offset="0" stop-color="#132340"/><stop offset="1" stop-color="#0B1220"/></linearGradient>
<radialGradient id="g1946050410r" cx="0.5" cy="0.48" r="0.55"><stop offset="0" stop-color="#38BDF8" stop-opacity="0.34"/><stop offset="1" stop-color="#38BDF8" stop-opacity="0"/></radialGradient>
</defs>
<rect width="640" height="400" fill="url(#g1946050410b)"/>
<g stroke="#FFFFFF" stroke-opacity="0.045" stroke-width="1"><path d="M0 0V400" /><path d="M40 0V400" /><path d="M80 0V400" /><path d="M120 0V400" /><path d="M160 0V400" /><path d="M200 0V400" /><path d="M240 0V400" /><path d="M280 0V400" /><path d="M320 0V400" /><path d="M360 0V400" /><path d="M400 0V400" /><path d="M440 0V400" /><path d="M480 0V400" /><path d="M520 0V400" /><path d="M560 0V400" /><path d="M600 0V400" /><path d="M640 0V400" /><path d="M0 0H640" /><path d="M0 40H640" /><path d="M0 80H640" /><path d="M0 120H640" /><path d="M0 160H640" /><path d="M0 200H640" /><path d="M0 240H640" /><path d="M0 280H640" /><path d="M0 320H640" /><path d="M0 360H640" /><path d="M0 400H640" /></g>
<rect width="640" height="400" fill="url(#g1946050410r)"/>
<g><g transform="translate(53.3 0.0) scale(0.667)"><path d="M400 110L570 175V300C570 395 500 460 400 495C300 460 230 395 230 300V175Z" fill="#0B1220" stroke="#38BDF8" stroke-width="6" stroke-linecap="round" stroke-linejoin="round"/><path d="M335 300L385 350L475 245" fill="none" stroke="#E2E8F0" stroke-width="12" stroke-linecap="round" stroke-linejoin="round"/><rect x="112" y="188" width="36" height="24" rx="6" fill="#1E3A5F" stroke="#38BDF899" stroke-width="3"/><rect x="92" y="318" width="36" height="24" rx="6" fill="#1E3A5F" stroke="#38BDF899" stroke-width="3"/><rect x="132" y="428" width="36" height="24" rx="6" fill="#1E3A5F" stroke="#38BDF899" stroke-width="3"/><rect x="652" y="208" width="36" height="24" rx="6" fill="#1E3A5F" stroke="#38BDF899" stroke-width="3"/><rect x="672" y="338" width="36" height="24" rx="6" fill="#1E3A5F" stroke="#38BDF899" stroke-width="3"/><rect x="632" y="438" width="36" height="24" rx="6" fill="#1E3A5F" stroke="#38BDF899" stroke-width="3"/><path d="M148 205L215 240" fill="none" stroke="#38BDF866" stroke-width="3" stroke-linecap="round" stroke-linejoin="round"/><path d="M128 330L232 315" fill="none" stroke="#38BDF866" stroke-width="3" stroke-linecap="round" stroke-linejoin="round"/><path d="M168 437L245 400" fill="none" stroke="#38BDF866" stroke-width="3" stroke-linecap="round" stroke-linejoin="round"/><path d="M652 225L585 245" fill="none" stroke="#38BDF866" stroke-width="3" stroke-linecap="round" stroke-linejoin="round"/><path d="M672 350L568 320" fill="none" stroke="#38BDF866" stroke-width="3" stroke-linecap="round" stroke-linejoin="round"/><path d="M632 445L555 405" fill="none" stroke="#38BDF866" stroke-width="3" stroke-linecap="round" stroke-linejoin="round"/></g></g>
</svg>
