<svg xmlns="http://www.w3.org/2000/svg" viewBox="0 0 800 600" width="800" height="600" role="img" aria-label="Illustration for BIM-Based Building Design and Quantity Estimation">
<title>Illustration for BIM-Based Building Design and Quantity Estimation</title>
<defs>
<linearGradient id="g2040591842b" x1="0" y1="0" x2="1" y2="1"><stop offset="0" stop-color="#132340"/><stop offset="1" stop-color="#0B1220"/></linearGradient>
<radialGradient id="g2040591842r" cx="0.5" cy="0.48" r="0.55"><stop offset="0" stop-color="#A3E635" stop-opacity="0.34"/><stop offset="1" stop-color="#A3E635" stop-opacity="0"/></radialGradient>
</defs>
<rect width="800" height="600" fill="url(#g2040591842b)"/>
<g stroke="#FFFFFF" stroke-opacity="0.045" stroke-width="1"><path d="M0 0V600" /><path d="M40 0V600" /><path d="M80 0V600" /><path d="M120 0V600" /><path d="M160 0V600" /><path d="M200 0V600" /><path d="M240 0V600" /><path d="M280 0V600" /><path d="M320 0V600" /><path d="M360 0V600" /><path d="M400 0V600" /><path d="M440 0V600" /><path d="M480 0V600" /><path d="M520 0V600" /><path d="M560 0V600" /><path d="M600 0V600" /><path d="M640 0V600" /><path d="M680 0V600" /><path d="M720 0V600" /><path d="M760 0V600" /><path d="M800 0V600" /><path d="M0 0H800" /><path d="M0 40H800" /><path d="M0 80H800" /><path d="M0 120H800" /><path d="M0 160H800" /><path d="M0 200H800" /><path d="M0 240H800" /><path d="M0 280H800" /><path d="M0 320H800" /><path d="M0 360H800" /><path d="M0 400H800" /><path d="M0 440H800" /><path d="M0 480H800" /><path d="M0 520H800" /><path d="M0 560H800" /><path d="M0 600H800" /></g>
<rect width="800" height="600" fill="url(#g2040591842r)"/>
<g><g transform="translate(0.0 0.0) scale(1.000)"><path d="M400 130L600 230V420L400 520L200 420V230Z" fill="#0B1220" stroke="#A3E635" stroke-width="6" stroke-linecap="round" stroke-linejoin="round"/><path d="M400 130V320M200 230L400 320L600 230" fill="none" stroke="#A3E635" stroke-width="5" stroke-linecap="round" stroke-linejoin="round"/><path d="M400 320V520" fill="none" stroke="#A3E635" stroke-width="5" stroke-linecap="round" stroke-linejoin="round"/><path d="M300 180L500 280M300 375L500 275" fill="none" stroke="#A3E63555" stroke-width="3" stroke-linecap="round" stroke-linejoin="round"/><rect x="190" y="80" width="140" height="40" rx="8" fill="#1E3A5F" stroke="#A3E635" stroke-width="3"/><path d="M210 100L300 100" fill="none" stroke="#E2E8F0" stroke-width="5" stroke-linecap="round" stroke-linejoin="round"/><path d="M130 250V400" fill="none" stroke="#E2E8F0" stroke-width="3" stroke-linecap="round" stroke-linejoin="round"/><path d="M120 250H140M120 400H140" fill="none" stroke="#E2E8F0" stroke-width="3" stroke-linecap="round" stroke-linejoin="round"/><path d="M200 560H600" fill="none" stroke="#E2E8F066" stroke-width="3" stroke-linecap="round" stroke-linejoin="round"/><circle cx="620" cy="160" r="20" fill="#0B1220"/><circle cx="620" cy="160" r="20" fill="none" stroke="#A3E635" stroke-width="5" stroke-linecap="round" stroke-linejoin="round"/><path d="M610 160L618 168L632 152" fill="none" stroke="#A3E635" stroke-width="4" stroke-linecap="round" stroke-linejoin="round"/></g></g>
</svg>
