<svg xmlns="http://www.w3.org/2000/svg" viewBox="0 0 800 600" width="800" height="600" role="img" aria-label="Illustration for CFD-Based Thermal Analysis of a Heat Sink">
<title>Illustration for CFD-Based Thermal Analysis of a Heat Sink</title>
<defs>
<linearGradient id="g714056558b" x1="0" y1="0" x2="1" y2="1"><stop offset="0" stop-color="#132340"/><stop offset="1" stop-color="#0B1220"/></linearGradient>
<radialGradient id="g714056558r" cx="0.5" cy="0.48" r="0.55"><stop offset="0" stop-color="#FB923C" stop-opacity="0.34"/><stop offset="1" stop-color="#FB923C" stop-opacity="0"/></radialGradient>
</defs>
<rect width="800" height="600" fill="url(#g714056558b)"/>
<g stroke="#FFFFFF" stroke-opacity="0.045" stroke-width="1"><path d="M0 0V600" /><path d="M40 0V600" /><path d="M80 0V600" /><path d="M120 0V600" /><path d="M160 0V600" /><path d="M200 0V600" /><path d="M240 0V600" /><path d="M280 0V600" /><path d="M320 0V600" /><path d="M360 0V600" /><path d="M400 0V600" /><path d="M440 0V600" /><path d="M480 0V600" /><path d="M520 0V600" /><path d="M560 0V600" /><path d="M600 0V600" /><path d="M640 0V600" /><path d="M680 0V600" /><path d="M720 0V600" /><path d="M760 0V600" /><path d="M800 0V600" /><path d="M0 0H800" /><path d="M0 40H800" /><path d="M0 80H800" /><path d="M0 120H800" /><path d="M0 160H800" /><path d="M0 200H800" /><path d="M0 240H800" /><path d="M0 280H800" /><path d="M0 320H800" /><path d="M0 360H800" /><path d="M0 400H800" /><path d="M0 440H800" /><path d="M0 480H800" /><path d="M0 520H800" /><path d="M0 560H800" /><path d="M0 600H800" /></g>
<rect width="800" height="600" fill="url(#g714056558r)"/>
<g><g transform="translate(0.0 0.0) scale(1.000)"><rect x="180" y="440" width="440" height="50" rx="8" fill="#1E3A5F" stroke="#FB923C" stroke-width="4"/><rect x="195" y="230" width="22" height="210" rx="6" fill="#0B1220" stroke="#FB923C" stroke-width="4"/><rect x="244" y="230" width="22" height="210" rx="6" fill="#0B1220" stroke="#FB923C" stroke-width="4"/><rect x="293" y="230" width="22" height="210" rx="6" fill="#0B1220" stroke="#FB923C" stroke-width="4"/><rect x="342" y="230" width="22" height="210" rx="6" fill="#0B1220" stroke="#FB923C" stroke-width="4"/><rect x="391" y="230" width="22" height="210" rx="6" fill="#0B1220" stroke="#FB923C" stroke-width="4"/><rect x="440" y="230" width="22" height="210" rx="6" fill="#0B1220" stroke="#FB923C" stroke-width="4"/><rect x="489" y="230" width="22" height="210" rx="6" fill="#0B1220" stroke="#FB923C" stroke-width="4"/><rect x="538" y="230" width="22" height="210" rx="6" fill="#0B1220" stroke="#FB923C" stroke-width="4"/><rect x="587" y="230" width="22" height="210" rx="6" fill="#0B1220" stroke="#FB923C" stroke-width="4"/><rect x="340" y="500" width="120" height="30" rx="6" fill="#E2E8F0AA" stroke="none" stroke-width="4"/><path d="M230 200Q215 160 230 125T230 60" fill="none" stroke="#F87171" stroke-width="6" stroke-linecap="round" stroke-linejoin="round"/><path d="M340 200Q325 160 340 125T340 60" fill="none" stroke="#FB923C" stroke-width="6" stroke-linecap="round" stroke-linejoin="round"/><path d="M450 200Q435 160 450 125T450 60" fill="none" stroke="#F87171" stroke-width="6" stroke-linecap="round" stroke-linejoin="round"/><path d="M560 200Q545 160 560 125T560 60" fill="none" stroke="#FB923C" stroke-width="6" stroke-linecap="round" stroke-linejoin="round"/></g></g>
</svg>
