<svg xmlns="http://www.w3.org/2000/svg" viewBox="0 0 800 600" width="800" height="600" role="img" aria-label="Illustration for Custom IoT Prototype Development Service">
<title>Illustration for Custom IoT Prototype Development Service</title>
<defs>
<linearGradient id="g1470057094b" x1="0" y1="0" x2="1" y2="1"><stop offset="0" stop-color="#132340"/><stop offset="1" stop-color="#0B1220"/></linearGradient>
<radialGradient id="g1470057094r" cx="0.5" cy="0.48" r="0.55"><stop offset="0" stop-color="#22D3EE" stop-opacity="0.34"/><stop offset="1" stop-color="#22D3EE" stop-opacity="0"/></radialGradient>
</defs>
<rect width="800" height="600" fill="url(#g1470057094b)"/>
<g stroke="#FFFFFF" stroke-opacity="0.045" stroke-width="1"><path d="M0 0V600" /><path d="M40 0V600" /><path d="M80 0V600" /><path d="M120 0V600" /><path d="M160 0V600" /><path d="M200 0V600" /><path d="M240 0V600" /><path d="M280 0V600" /><path d="M320 0V600" /><path d="M360 0V600" /><path d="M400 0V600" /><path d="M440 0V600" /><path d="M480 0V600" /><path d="M520 0V600" /><path d="M560 0V600" /><path d="M600 0V600" /><path d="M640 0V600" /><path d="M680 0V600" /><path d="M720 0V600" /><path d="M760 0V600" /><path d="M800 0V600" /><path d="M0 0H800" /><path d="M0 40H800" /><path d="M0 80H800" /><path d="M0 120H800" /><path d="M0 160H800" /><path d="M0 200H800" /><path d="M0 240H800" /><path d="M0 280H800" /><path d="M0 320H800" /><path d="M0 360H800" /><path d="M0 400H800" /><path d="M0 440H800" /><path d="M0 480H800" /><path d="M0 520H800" /><path d="M0 560H800" /><path d="M0 600H800" /></g>
<rect width="800" height="600" fill="url(#g1470057094r)"/>
<g><g transform="translate(0.0 0.0) scale(1.000)"><path d="M400 300L400 130" fill="none" stroke="#22D3EE66" stroke-width="3" stroke-linecap="round" stroke-linejoin="round"/><path d="M400 300L610 215" fill="none" stroke="#22D3EE66" stroke-width="3" stroke-linecap="round" stroke-linejoin="round"/><path d="M400 300L610 385" fill="none" stroke="#22D3EE66" stroke-width="3" stroke-linecap="round" stroke-linejoin="round"/><path d="M400 300L400 470" fill="none" stroke="#22D3EE66" stroke-width="3" stroke-linecap="round" stroke-linejoin="round"/><path d="M400 300L190 385" fill="none" stroke="#22D3EE66" stroke-width="3" stroke-linecap="round" stroke-linejoin="round"/><path d="M400 300L190 215" fill="none" stroke="#22D3EE66" stroke-width="3" stroke-linecap="round" stroke-linejoin="round"/><path d="M400 130L610 215L610 385L400 470L190 385L190 215Z" fill="none" stroke="#22D3EE33" stroke-width="2" stroke-linecap="round" stroke-linejoin="round"/><circle cx="400" cy="130" r="30" fill="#0B1220"/><circle cx="400" cy="130" r="30" fill="none" stroke="#22D3EE" stroke-width="5" stroke-linecap="round" stroke-linejoin="round"/><circle cx="400" cy="130" r="8" fill="#22D3EE"/><circle cx="610" cy="215" r="30" fill="#0B1220"/><circle cx="610" cy="215" r="30" fill="none" stroke="#E2E8F0" stroke-width="5" stroke-linecap="round" stroke-linejoin="round"/><circle cx="610" cy="215" r="8" fill="#E2E8F0"/><circle cx="610" cy="385" r="30" fill="#0B1220"/><circle cx="610" cy="385" r="30" fill="none" stroke="#22D3EE" stroke-width="5" stroke-linecap="round" stroke-linejoin="round"/><circle cx="610" cy="385" r="8" fill="#22D3EE"/><circle cx="400" cy="470" r="30" fill="#0B1220"/><circle cx="400" cy="470" r="30" fill="none" stroke="#E2E8F0" stroke-width="5" stroke-linecap="round" stroke-linejoin="round"/><circle cx="400" cy="470" r="8" fill="#E2E8F0"/><circle cx="190" cy="385" r="30" fill="#0B1220"/><circle cx="190" cy="385" r="30" fill="none" stroke="#22D3EE" stroke-width="5" stroke-linecap="round" stroke-linejoin="round"/><circle cx="190" cy="385" r="8" fill="#22D3EE"/><circle cx="190" cy="215" r="30" fill="#0B1220"/><circle cx="190" cy="215" r="30" fill="none" stroke="#E2E8F0" stroke-width="5" stroke-linecap="round" stroke-linejoin="round"/><circle cx="190" cy="215" r="8" fill="#E2E8F0"/><circle cx="400" cy="300" r="64" fill="#0B1220" fill="none" stroke="#22D3EE" stroke-width="7" stroke-linecap="round" stroke-linejoin="round"/><path d="M375 300H425M400 275V325" fill="none" stroke="#22D3EE" stroke-width="6" stroke-linecap="round" stroke-linejoin="round"/></g></g>
</svg>
