<svg xmlns="http://www.w3.org/2000/svg" viewBox="0 0 800 600" width="800" height="600" role="img" aria-label="Illustration for ecg sensor kit">
<title>Illustration for ecg sensor kit</title>
<defs>
<linearGradient id="g938317381b" x1="0" y1="0" x2="1" y2="1"><stop offset="0" stop-color="#132340"/><stop offset="1" stop-color="#0B1220"/></linearGradient>
<radialGradient id="g938317381r" cx="0.5" cy="0.48" r="0.55"><stop offset="0" stop-color="#F87171" stop-opacity="0.34"/><stop offset="1" stop-color="#F87171" stop-opacity="0"/></radialGradient>
</defs>
<rect width="800" height="600" fill="url(#g938317381b)"/>
<g stroke="#FFFFFF" stroke-opacity="0.045" stroke-width="1"><path d="M0 0V600" /><path d="M40 0V600" /><path d="M80 0V600" /><path d="M120 0V600" /><path d="M160 0V600" /><path d="M200 0V600" /><path d="M240 0V600" /><path d="M280 0V600" /><path d="M320 0V600" /><path d="M360 0V600" /><path d="M400 0V600" /><path d="M440 0V600" /><path d="M480 0V600" /><path d="M520 0V600" /><path d="M560 0V600" /><path d="M600 0V600" /><path d="M640 0V600" /><path d="M680 0V600" /><path d="M720 0V600" /><path d="M760 0V600" /><path d="M800 0V600" /><path d="M0 0H800" /><path d="M0 40H800" /><path d="M0 80H800" /><path d="M0 120H800" /><path d="M0 160H800" /><path d="M0 200H800" /><path d="M0 240H800" /><path d="M0 280H800" /><path d="M0 320H800" /><path d="M0 360H800" /><path d="M0 400H800" /><path d="M0 440H800" /><path d="M0 480H800" /><path d="M0 520H800" /><path d="M0 560H800" /><path d="M0 600H800" /></g>
<rect width="800" height="600" fill="url(#g938317381r)"/>
<g><g transform="translate(0.0 0.0) scale(1.000)"><path d="M110 330H260L300 240L350 430L400 180L450 400L490 320H690" fill="none" stroke="#F87171" stroke-width="8" stroke-linecap="round" stroke-linejoin="round"/><path d="M110 330H260L300 240L350 430L400 180L450 400L490 320H690" fill="none" stroke="#E2E8F0" stroke-width="2" stroke-linecap="round" stroke-linejoin="round"/><path d="M400 520Q330 470 330 430Q330 395 365 395Q390 395 400 420Q410 395 435 395Q470 395 470 430Q470 470 400 520Z" fill="#F8717155" stroke="#F87171" stroke-width="4" stroke-linecap="round" stroke-linejoin="round"/></g></g>
</svg>
