<svg xmlns="http://www.w3.org/2000/svg" viewBox="0 0 800 600" width="800" height="600" role="img" aria-label="Illustration for Rainwater Harvesting Design and Analysis">
<title>Illustration for Rainwater Harvesting Design and Analysis</title>
<defs>
<linearGradient id="g1970349148b" x1="0" y1="0" x2="1" y2="1"><stop offset="0" stop-color="#132340"/><stop offset="1" stop-color="#0B1220"/></linearGradient>
<radialGradient id="g1970349148r" cx="0.5" cy="0.48" r="0.55"><stop offset="0" stop-color="#A3E635" stop-opacity="0.34"/><stop offset="1" stop-color="#A3E635" stop-opacity="0"/></radialGradient>
</defs>
<rect width="800" height="600" fill="url(#g1970349148b)"/>
<g stroke="#FFFFFF" stroke-opacity="0.045" stroke-width="1"><path d="M0 0V600" /><path d="M40 0V600" /><path d="M80 0V600" /><path d="M120 0V600" /><path d="M160 0V600" /><path d="M200 0V600" /><path d="M240 0V600" /><path d="M280 0V600" /><path d="M320 0V600" /><path d="M360 0V600" /><path d="M400 0V600" /><path d="M440 0V600" /><path d="M480 0V600" /><path d="M520 0V600" /><path d="M560 0V600" /><path d="M600 0V600" /><path d="M640 0V600" /><path d="M680 0V600" /><path d="M720 0V600" /><path d="M760 0V600" /><path d="M800 0V600" /><path d="M0 0H800" /><path d="M0 40H800" /><path d="M0 80H800" /><path d="M0 120H800" /><path d="M0 160H800" /><path d="M0 200H800" /><path d="M0 240H800" /><path d="M0 280H800" /><path d="M0 320H800" /><path d="M0 360H800" /><path d="M0 400H800" /><path d="M0 440H800" /><path d="M0 480H800" /><path d="M0 520H800" /><path d="M0 560H800" /><path d="M0 600H800" /></g>
<rect width="800" height="600" fill="url(#g1970349148r)"/>
<g><g transform="translate(0.0 0.0) scale(1.000)"><path d="M200 220Q180 220 180 190Q180 150 235 150Q250 100 320 100Q380 95 400 140Q470 130 490 190Q520 195 520 220Z" fill="#1E3A5F" stroke="#E2E8F0" stroke-width="6" stroke-linecap="round" stroke-linejoin="round"/><path d="M230 250l-12 36" fill="none" stroke="#A3E635" stroke-width="5" stroke-linecap="round" stroke-linejoin="round"/><path d="M275 270l-12 36" fill="none" stroke="#A3E635" stroke-width="5" stroke-linecap="round" stroke-linejoin="round"/><path d="M320 250l-12 36" fill="none" stroke="#A3E635" stroke-width="5" stroke-linecap="round" stroke-linejoin="round"/><path d="M365 270l-12 36" fill="none" stroke="#A3E635" stroke-width="5" stroke-linecap="round" stroke-linejoin="round"/><path d="M410 250l-12 36" fill="none" stroke="#A3E635" stroke-width="5" stroke-linecap="round" stroke-linejoin="round"/><path d="M455 270l-12 36" fill="none" stroke="#A3E635" stroke-width="5" stroke-linecap="round" stroke-linejoin="round"/><path d="M500 250l-12 36" fill="none" stroke="#A3E635" stroke-width="5" stroke-linecap="round" stroke-linejoin="round"/><path d="M470 330L600 280L690 330V450H470Z" fill="#0B1220" stroke="#A3E635" stroke-width="5" stroke-linecap="round" stroke-linejoin="round"/><path d="M455 330L600 262L705 330" fill="none" stroke="#E2E8F0" stroke-width="6" stroke-linecap="round" stroke-linejoin="round"/><path d="M520 450L520 520" fill="none" stroke="#E2E8F0" stroke-width="5" stroke-linecap="round" stroke-linejoin="round"/><rect x="150" y="440" width="260" height="90" rx="12" fill="#0B1220" stroke="#A3E635" stroke-width="4"/><path d="M160 480Q200 465 240 480T320 480T400 480V520H160Z" fill="#A3E63555" stroke="#A3E63588" stroke-width="3" stroke-linecap="round" stroke-linejoin="round"/><path d="M410 480H470" fill="none" stroke="#A3E635" stroke-width="5" stroke-linecap="round" stroke-linejoin="round"/></g></g>
</svg>
