<svg xmlns="http://www.w3.org/2000/svg" viewBox="0 0 800 600" width="800" height="600" role="img" aria-label="Illustration for Road Traffic Density Analysis Dashboard">
<title>Illustration for Road Traffic Density Analysis Dashboard</title>
<defs>
<linearGradient id="g719326076b" x1="0" y1="0" x2="1" y2="1"><stop offset="0" stop-color="#132340"/><stop offset="1" stop-color="#0B1220"/></linearGradient>
<radialGradient id="g719326076r" cx="0.5" cy="0.48" r="0.55"><stop offset="0" stop-color="#A3E635" stop-opacity="0.34"/><stop offset="1" stop-color="#A3E635" stop-opacity="0"/></radialGradient>
</defs>
<rect width="800" height="600" fill="url(#g719326076b)"/>
<g stroke="#FFFFFF" stroke-opacity="0.045" stroke-width="1"><path d="M0 0V600" /><path d="M40 0V600" /><path d="M80 0V600" /><path d="M120 0V600" /><path d="M160 0V600" /><path d="M200 0V600" /><path d="M240 0V600" /><path d="M280 0V600" /><path d="M320 0V600" /><path d="M360 0V600" /><path d="M400 0V600" /><path d="M440 0V600" /><path d="M480 0V600" /><path d="M520 0V600" /><path d="M560 0V600" /><path d="M600 0V600" /><path d="M640 0V600" /><path d="M680 0V600" /><path d="M720 0V600" /><path d="M760 0V600" /><path d="M800 0V600" /><path d="M0 0H800" /><path d="M0 40H800" /><path d="M0 80H800" /><path d="M0 120H800" /><path d="M0 160H800" /><path d="M0 200H800" /><path d="M0 240H800" /><path d="M0 280H800" /><path d="M0 320H800" /><path d="M0 360H800" /><path d="M0 400H800" /><path d="M0 440H800" /><path d="M0 480H800" /><path d="M0 520H800" /><path d="M0 560H800" /><path d="M0 600H800" /></g>
<rect width="800" height="600" fill="url(#g719326076r)"/>
<g><g transform="translate(0.0 0.0) scale(1.000)"><path d="M310 120L90 520M490 120L710 520" fill="none" stroke="#E2E8F0" stroke-width="6" stroke-linecap="round" stroke-linejoin="round"/><path d="M400 130L400 520" fill="none" stroke="#E2E8F099" stroke-width="4" stroke-linecap="round" stroke-linejoin="round"/><path d="M310 120L490 120L710 520L90 520Z" fill="#1E3A5F" fill-opacity="0.55"/><rect x="360" y="230" width="80" height="56" rx="10" fill="#E2E8F066" stroke="none" stroke-width="4"/><path d="M348 250V218H380M420 218H452V250M452 266V298H420M380 298H348V266" fill="none" stroke="#A3E635" stroke-width="5" stroke-linecap="round" stroke-linejoin="round"/><rect x="250" y="360" width="100" height="70" rx="10" fill="#E2E8F066" stroke="none" stroke-width="4"/><path d="M238 380V348H270M330 348H362V380M362 410V442H330M270 442H238V410" fill="none" stroke="#A3E635" stroke-width="5" stroke-linecap="round" stroke-linejoin="round"/><rect x="470" y="410" width="110" height="80" rx="10" fill="#E2E8F066" stroke="none" stroke-width="4"/><path d="M458 430V398H490M560 398H592V430M592 470V502H560M490 502H458V470" fill="none" stroke="#A3E635" stroke-width="5" stroke-linecap="round" stroke-linejoin="round"/></g></g>
</svg>
